<svg width="26" height="24" viewBox="0 0 26 24" fill="none" xmlns="http://www.w3.org/2000/svg">
<g clip-path="url(#clip0_10_63)">
<path d="M22.7175 0H2.32509C1.83662 0 1.47014 0.396126 1.51324 0.864196L3.37584 20.867C3.41899 21.3348 3.84111 21.8243 4.31458 21.9507L11.6572 23.9053C12.13 24.0309 12.9029 24.0317 13.3764 23.9069L20.7281 21.9551C21.2017 21.829 21.6238 21.3439 21.6669 20.8754L23.5303 0.864196C23.5734 0.396126 23.2084 0 22.7175 0ZM19.1809 7.22046C19.1806 7.22352 19.1781 7.22592 19.1749 7.22643C19.1717 7.22694 19.1686 7.22536 19.1673 7.2225L13.4145 9.48173C13.3326 9.5139 13.2859 9.59717 13.3029 9.68043C13.32 9.76369 13.3962 9.82376 13.4848 9.82376H17.9595C18.1975 9.82376 18.4243 9.92063 18.5835 10.0903C18.7426 10.2599 18.8191 10.4863 18.7939 10.7131L18.0947 16.9986C18.0604 17.307 17.8442 17.5689 17.5389 17.6719L12.7893 19.2734C12.6104 19.3338 12.4155 19.3342 12.2361 19.2747L7.50879 17.7054C7.20164 17.6034 6.98361 17.3407 6.94908 17.0309L6.63213 14.1844C6.61548 14.0349 6.66587 13.8857 6.77068 13.774C6.87555 13.6622 7.02495 13.5984 7.18179 13.5984H8.49728C8.77996 13.5984 9.01704 13.8027 9.04694 14.072L9.24141 15.8217L12.5146 16.9121L15.8028 15.8118L16.205 12.183H6.90784C6.62602 12.183 6.38931 11.9798 6.3584 11.7113L6.18138 10.1733C6.15435 9.93873 6.29247 9.71536 6.52008 9.62546L12.4704 7.27446C12.5379 7.24779 12.5762 7.17921 12.5621 7.11058C12.5479 7.042 12.4851 6.9926 12.4122 6.9926H6.14738C5.95877 6.9926 5.8006 6.8561 5.78091 6.67642L5.59969 5.02334C5.58879 4.92386 5.62247 4.82459 5.69232 4.7502C5.76218 4.67585 5.86173 4.63338 5.96612 4.63338H19.0747C19.1797 4.63338 19.2796 4.67631 19.3495 4.75132C19.4194 4.82637 19.4526 4.92641 19.4408 5.02635L19.1809 7.22046Z" fill="#94A1B2"/>
</g>
<defs>
<clipPath id="clip0_10_63">
<rect width="25.0435" height="24" fill="white"/>
</clipPath>
</defs>
</svg>
