<svg width="24" height="24" viewBox="0 0 24 24" fill="none" xmlns="http://www.w3.org/2000/svg">
<path d="M12.001 0.00708008C5.32599 0.00708008 0.00698853 5.32608 0.00698853 12.0001C0.00698853 18.6741 5.32599 23.9951 12 23.9951C18.674 23.9951 23.994 18.6761 23.994 12.0011C23.994 5.32608 18.676 0.00708008 12.001 0.00708008ZM2.61399 12.1051L11.897 21.3881C6.78599 21.3881 2.61399 17.2161 2.61399 12.1051ZM14.087 21.1791L2.82299 9.91508C3.75999 5.74308 7.51599 2.61408 12 2.61408C13.4826 2.61698 14.9439 2.96773 16.2663 3.63813C17.5887 4.30854 18.7353 5.27989 19.614 6.47408L18.259 7.62008C17.5524 6.58594 16.6028 5.74094 15.4936 5.15915C14.3844 4.57736 13.1495 4.27654 11.897 4.28308C10.3131 4.27291 8.76611 4.76079 7.47464 5.67776C6.18316 6.59473 5.21255 7.89441 4.69999 9.39308L14.504 19.1981C16.904 18.3631 18.78 16.2781 19.302 13.7741H15.234V12.0011H21.388C21.388 16.4861 18.259 20.2411 14.087 21.1791Z" fill="#94A1B2"/>
</svg>
