<svg width="25" height="24" viewBox="0 0 25 24" fill="none" xmlns="http://www.w3.org/2000/svg">
<path d="M1.84225 0C1.61554 0 1.44663 0.17975 1.46674 0.399445L3.37799 21.2578C3.3981 21.4775 3.59323 21.7055 3.81177 21.7646L11.9221 23.9556C12.1406 24.0146 12.498 24.0146 12.7166 23.9557L20.8515 21.7611C21.07 21.7021 21.2654 21.4741 21.2855 21.2545L23.1999 0.399445C23.2201 0.17975 23.0511 0 22.8244 0H1.84225ZM19.1297 4.7838C19.1116 4.97975 19.0804 5.31992 19.0602 5.53962L19.0099 6.08689C18.9896 6.3065 18.9607 6.6206 18.9455 6.78479C18.9303 6.94906 18.9159 7.08341 18.9132 7.08341C18.9107 7.08341 18.7231 7.08341 18.4964 7.08341H12.7455C12.5188 7.08341 12.3314 7.08341 12.3289 7.08341C12.3265 7.08341 12.1389 7.08341 11.9122 7.08341H8.88344C8.65673 7.08341 8.48782 7.26316 8.50793 7.48286L8.6846 9.40429C8.70471 9.6239 8.90677 9.80373 9.13347 9.80373H11.9123C12.139 9.80373 12.3265 9.80373 12.329 9.80373C12.3315 9.80373 12.5189 9.80373 12.7456 9.80373H17.5219C17.7486 9.80373 18.0995 9.80373 18.3016 9.80373C18.5035 9.80373 18.6538 9.96407 18.6355 10.16C18.6171 10.356 18.5857 10.6962 18.5656 10.9158L17.9975 17.1103C17.9772 17.33 17.9516 17.6106 17.9406 17.734C17.9293 17.8573 17.7414 18.0064 17.5229 18.0653L12.7306 19.3583C12.5121 19.4171 12.3306 19.4659 12.3272 19.4666C12.3238 19.4673 12.1424 19.4196 11.9238 19.3607L7.12636 18.0654C6.9079 18.0065 6.71268 17.7784 6.69257 17.5587L6.38375 14.1863C6.36364 13.9666 6.53272 13.7869 6.75943 13.7869H7.19725C7.42396 13.7869 7.79493 13.7869 8.02163 13.7869H8.67454C8.90124 13.7869 9.10314 13.9666 9.12341 14.1863L9.24452 15.5065C9.26463 15.7262 9.46009 15.9529 9.67905 16.0105L11.9231 16.6001C12.1419 16.6576 12.3218 16.7047 12.3227 16.7047C12.3237 16.7047 12.5035 16.6575 12.7224 16.6L14.9705 16.0089C15.1893 15.9514 15.3849 15.7246 15.4052 15.505L15.649 12.86C15.6692 12.6403 15.5003 12.4605 15.2736 12.4605H12.7456C12.5189 12.4605 12.3315 12.4605 12.329 12.4605C12.3265 12.4605 12.139 12.4605 11.9123 12.4605H6.63717C6.41046 12.4605 6.20857 12.2807 6.18846 12.0611L5.59029 5.53954C5.57017 5.31984 5.53893 4.97975 5.52088 4.78372C5.50299 4.58776 5.67372 4.42743 5.90042 4.42743H11.9123C12.139 4.42743 12.3265 4.42743 12.329 4.42743C12.3315 4.42743 12.5189 4.42743 12.7456 4.42743H18.7502C18.9768 4.42743 19.1476 4.58776 19.1297 4.7838Z" fill="#94A1B2"/>
</svg>
