<svg width="24" height="24" viewBox="0 0 24 24" fill="none" xmlns="http://www.w3.org/2000/svg">
<path d="M14.6831 17.6174L18.0732 15.5823V6.46899L14.6831 8.66054V17.6174Z" fill="#94A1B2"/>
<path d="M9.35103 6.11719L5.92682 7.86169V17.3862L9.32884 15.2654L9.35103 15.2516V6.11719Z" fill="#94A1B2"/>
<path d="M13.9331 8.70398L13.868 8.66205L10.1011 6.23364V15.2521L10.1223 15.2654L13.9331 17.6409V8.70398Z" fill="#94A1B2"/>
<path d="M12 0C5.37257 0 0 5.37257 0 12C0 18.6274 5.37257 24 12 24C18.6274 24 24 18.6274 24 12C24 5.37257 18.6274 0 12 0ZM18.8232 16.0068L14.2744 18.7376L9.72563 15.9019L5.17685 18.7376V7.40214L9.713 5.09118L10.0866 5.33207H10.1011V5.34137L14.2744 8.03177L18.8232 5.09118V16.0068Z" fill="#94A1B2"/>
</svg>
