<svg width="24" height="24" viewBox="0 0 24 24" fill="none" xmlns="http://www.w3.org/2000/svg">
<path d="M16.934 8.51902C17.0482 8.57648 17.1509 8.65444 17.237 8.74901L19.586 7.70402L17.394 5.53302L16.903 8.48702L16.934 8.51902ZM12.06 6.54602C12.1741 6.71812 12.2457 6.91484 12.269 7.12002L15.766 8.60202C15.8719 8.52087 15.9924 8.46079 16.121 8.42502L16.695 4.87502L14.565 2.64102L12.06 6.49302V6.54602ZM23.993 12.037L20.245 8.28901L17.697 9.33302L23.961 11.995C23.961 11.995 24.014 12.037 23.993 12.037ZM23.366 12.643L17.353 10.074C17.2693 10.1851 17.1643 10.2783 17.0441 10.3481C16.9239 10.418 16.7909 10.4632 16.653 10.481L16.006 14.438C16.199 14.6325 16.3078 14.895 16.309 15.169L19.942 15.931L23.272 12.621V12.559L23.366 12.643ZM15.4 9.25002L12.132 7.86002C12.0193 8.03256 11.864 8.17317 11.6811 8.26827C11.4983 8.36338 11.294 8.40978 11.088 8.40302H10.889L8.185 12.58L15.41 9.44802V9.45802C15.4047 9.40247 15.4047 9.34656 15.41 9.29102C15.4113 9.28386 15.4111 9.27652 15.4093 9.26945C15.4076 9.26239 15.4044 9.25577 15.4 9.25002ZM19.367 16.558L16.172 15.9C16.052 16.0535 15.8932 16.1723 15.712 16.244L14.951 20.964L19.388 16.568C19.388 16.568 19.378 16.588 19.367 16.588V16.558ZM14.898 16.234C14.747 16.1721 14.6126 16.0756 14.5056 15.9523C14.3986 15.829 14.322 15.6823 14.282 15.524L8.332 14.302L8.248 14.438L13.646 22.248L13.969 21.924L14.888 16.254C14.888 16.254 14.919 16.276 14.898 16.265V16.234ZM8.457 13.582L14.335 14.793C14.4195 14.6455 14.5387 14.5208 14.6823 14.4299C14.8259 14.3389 14.9895 14.2844 15.159 14.271L15.796 10.377L15.661 10.262L8.353 13.394C8.39134 13.4546 8.42607 13.5174 8.457 13.582ZM5.993 14.563L5.868 14.438L3.331 15.482L4.563 16.704L5.962 14.532L5.993 14.563ZM7.663 14.96C7.48635 15.0412 7.29442 15.0838 7.1 15.085C6.947 15.0856 6.79496 15.061 6.65 15.012L5.106 17.257L11.871 23.959L13.061 22.779L7.663 14.96ZM6.713 12.319C6.81744 12.3093 6.92256 12.3093 7.027 12.319C7.14122 12.3046 7.25678 12.3046 7.371 12.319L10.106 8.06902C9.89238 7.84782 9.77269 7.55252 9.772 7.24502C9.76212 7.15495 9.76212 7.06408 9.772 6.97402L6.452 5.43902L3.78 8.03902L6.713 12.319ZM7.016 4.91702L10.253 6.29502C10.4875 6.1021 10.7846 6.00178 11.088 6.01302C11.2227 6.01419 11.3565 6.03542 11.485 6.07602L14.011 2.12902L11.923 0.0410156L7.016 4.85402C7.016 4.85402 7.006 4.90602 7.016 4.91702ZM5.806 13.081C5.87097 12.9596 5.95166 12.8473 6.046 12.747L3.278 8.61302L0 11.797L5.804 13.081H5.806ZM5.544 13.781L0.533 12.735L2.736 14.97L5.513 13.79L5.544 13.781Z" fill="#94A1B2"/>
</svg>
