<svg width="21" height="24" viewBox="0 0 21 24" fill="none" xmlns="http://www.w3.org/2000/svg">
<path d="M10.5 23.8126C10.1859 23.8126 9.86718 23.7282 9.59062 23.5688L6.69843 21.8579C6.26718 21.6142 6.47812 21.5298 6.61874 21.4829C7.19531 21.2813 7.3125 21.2392 7.92656 20.8876C7.99218 20.8501 8.07656 20.8642 8.14218 20.9063L10.3641 22.2235C10.4437 22.2704 10.5562 22.2704 10.6312 22.2235L19.2891 17.2267C19.3687 17.1798 19.4203 17.086 19.4203 16.9923V6.99854C19.4203 6.9001 19.3687 6.81104 19.2844 6.75947L10.6312 1.76729C10.5516 1.72041 10.4437 1.72041 10.3641 1.76729L1.71562 6.76416C1.63124 6.81104 1.57968 6.90479 1.57968 7.00322V16.9923C1.57968 17.086 1.63124 17.1798 1.71562 17.222L4.08749 18.5907C5.37656 19.2329 6.16406 18.4782 6.16406 17.7142V7.85166C6.16406 7.71104 6.27656 7.60322 6.41718 7.60322H7.51406C7.65 7.60322 7.76718 7.71104 7.76718 7.85166V17.7188C7.76718 19.4345 6.82968 20.4188 5.20312 20.4188C4.70156 20.4188 4.30781 20.4188 3.21093 19.8751L0.942182 18.5673C0.379681 18.2439 0.0328064 17.6392 0.0328064 16.9876V6.99854C0.0328064 6.35166 0.379681 5.74229 0.942182 5.41885L9.59062 0.421973C10.1391 0.112598 10.8656 0.112598 11.4094 0.421973L20.0672 5.42354C20.6297 5.74697 20.9766 6.35166 20.9766 7.00322V16.9923C20.9766 17.6392 20.6297 18.2439 20.0672 18.572L11.4094 23.5688C11.1328 23.7282 10.8187 23.8126 10.5 23.8126ZM17.4891 13.9642C17.4891 12.0938 16.2234 11.597 13.5656 11.2454C10.875 10.8892 10.6031 10.7063 10.6031 10.0782C10.6031 9.55791 10.8328 8.86416 12.825 8.86416C14.6016 8.86416 15.2578 9.24854 15.5297 10.4485C15.5531 10.561 15.6562 10.6454 15.7734 10.6454H16.8984C16.9687 10.6454 17.0344 10.6173 17.0812 10.5657C17.1281 10.5142 17.1516 10.4438 17.1469 10.3735C16.9734 8.30635 15.6 7.34541 12.825 7.34541C10.3547 7.34541 8.88281 8.38604 8.88281 10.1345C8.88281 12.0282 10.35 12.5532 12.7172 12.7876C15.5531 13.0642 15.7734 13.4813 15.7734 14.0392C15.7734 15.0048 14.9953 15.4173 13.1719 15.4173C10.8797 15.4173 10.3781 14.8407 10.2094 13.7017C10.1906 13.5798 10.0875 13.4907 9.96093 13.4907H8.84062C8.7 13.4907 8.59218 13.6032 8.59218 13.7392C8.59218 15.197 9.38437 16.936 13.1766 16.936C15.9141 16.9313 17.4891 15.8485 17.4891 13.9642Z" fill="#94A1B2"/>
</svg>
