<svg width="24" height="24" viewBox="0 0 24 24" fill="none" xmlns="http://www.w3.org/2000/svg">
<path d="M12 9.85953C10.8202 9.85953 9.8595 10.8203 9.8595 12C9.8595 13.1798 10.8202 14.1405 12 14.1405C13.1798 14.1405 14.1405 13.1798 14.1405 12C14.1405 10.8203 13.1798 9.85953 12 9.85953ZM6.0075 16.254L5.535 16.137C2.019 15.246 0 13.7385 0 11.9963C0 10.254 2.01975 8.74653 5.535 7.85553L6.0075 7.73853L6.14025 8.20728C6.49575 9.43353 6.9525 10.629 7.50375 11.7855L7.605 11.9963L7.50375 12.2108C6.95325 13.3628 6.49575 14.5583 6.14025 15.789L6.0075 16.254ZM5.31675 8.94903C2.6445 9.69903 1.00425 10.851 1.00425 11.9963C1.00425 13.1415 2.64525 14.289 5.31675 15.0435C5.64525 14.0003 6.03975 12.9848 6.50025 11.9963C6.039 11.0078 5.6445 9.99228 5.31675 8.94903ZM17.9925 16.254L17.8597 15.7853C17.5042 14.559 17.0475 13.3635 16.4963 12.2108L16.395 11.9963L16.4963 11.7818C17.0468 10.6298 17.5042 9.43428 17.8597 8.20353L17.9925 7.73853L18.465 7.85553C21.981 8.74653 24 10.254 24 11.9963C24 13.7385 21.9803 15.246 18.465 16.137L17.9925 16.254ZM17.4998 11.9963C17.9805 13.035 18.3787 14.055 18.6833 15.0435C21.3592 14.2898 22.9958 13.1415 22.9958 11.9963C22.9958 10.851 21.3547 9.70353 18.6833 8.94903C18.3547 9.98778 17.9603 11.0078 17.4998 11.9963ZM5.3085 8.94528L5.17575 8.47653C4.18725 4.99203 4.488 2.49228 6 1.62078C7.48425 0.765025 9.86325 1.77678 12.3593 4.33953L12.699 4.68753L12.3593 5.03553C11.4727 5.95728 10.6643 6.94953 9.9375 8.00403L9.801 8.19528L9.56625 8.21478C8.289 8.31603 7.023 8.51928 5.781 8.82453L5.3085 8.94528ZM7.20675 2.31678C6.9375 2.31678 6.699 2.37153 6.4995 2.48853C5.50725 3.06303 5.33175 5.05503 6.015 7.74228C7.0815 7.50378 8.15925 7.33578 9.24975 7.23828C9.8745 6.34728 10.5623 5.49603 11.3003 4.69503C9.74175 3.17553 8.265 2.31603 7.20675 2.31603V2.31678ZM16.797 22.6755C16.7932 22.6755 16.7932 22.6755 16.797 22.6755C15.3713 22.6755 13.539 21.6053 11.6407 19.6523L11.301 19.3043L11.6407 18.9563C12.5273 18.0345 13.3357 17.0423 14.0625 15.9878L14.1952 15.7965L14.43 15.7733C15.7072 15.6758 16.9732 15.4725 18.219 15.1635L18.6915 15.0465L18.8243 15.5153C19.8127 18.9998 19.512 21.4958 18 22.3665C17.6325 22.5773 17.2185 22.683 16.797 22.6748V22.6755ZM12.699 19.2968C14.2575 20.8163 15.7342 21.6758 16.7925 21.6758H16.7962C17.0618 21.6758 17.3003 21.6173 17.4998 21.504C18.492 20.9295 18.672 18.9375 17.9842 16.2503C16.9177 16.4888 15.8355 16.6568 14.7495 16.7505C14.1248 17.6453 13.437 18.4928 12.699 19.2975V19.2968ZM18.6915 8.94528L18.219 8.82453C16.9732 8.52003 15.7072 8.31678 14.43 8.21478L14.1952 8.19528L14.0625 8.00403C13.3357 6.94953 12.5273 5.95728 11.6407 5.03553L11.301 4.68753L11.6407 4.33953C14.1368 1.77678 16.5158 0.765025 18 1.62078C19.512 2.49153 19.8127 4.99203 18.8243 8.47653L18.6915 8.94528ZM14.7502 7.23828C15.891 7.34403 16.977 7.51203 17.985 7.74228C18.6728 5.05503 18.4928 3.06228 17.5005 2.48853C16.512 1.91853 14.6528 2.79303 12.6998 4.69578C13.4378 5.50053 14.1217 6.34803 14.7502 7.23903V7.23828ZM7.20675 22.6755C6.7845 22.683 6.36675 22.578 6 22.3673C4.488 21.4965 4.18725 18.9998 5.17575 15.516L5.3085 15.0473L5.781 15.1643C6.9375 15.4575 8.211 15.66 9.56625 15.774L9.801 15.7973L9.93375 15.9885C10.6605 17.043 11.469 18.0353 12.3555 18.957L12.6952 19.305L12.3555 19.653C10.461 21.606 8.62875 22.6763 7.20675 22.6763V22.6755ZM6.01575 16.2503C5.328 18.9375 5.508 20.9303 6.50025 21.504C7.48875 22.0665 9.34425 21.1995 11.301 19.2968C10.563 18.492 9.87525 17.6445 9.2505 16.7498C8.16075 16.656 7.08225 16.488 6.01575 16.2495V16.2503ZM12 16.8788C11.1757 16.8788 10.332 16.8435 9.4845 16.773L9.24975 16.7535L9.11325 16.5585C8.637 15.8708 8.18325 15.1643 7.7655 14.4375C7.34325 13.7108 6.957 12.969 6.59775 12.2108L6.4965 11.9963L6.59775 11.7818C6.957 11.0243 7.344 10.2818 7.7655 9.55503C8.1795 8.84028 8.6325 8.12553 9.11325 7.43403L9.24975 7.23903L9.4845 7.21953C11.16 7.07853 12.8438 7.07853 14.5155 7.21953L14.7502 7.23903L14.8868 7.43403C15.8438 8.80878 16.6875 10.266 17.4022 11.7818L17.5035 11.9963L17.4022 12.2108C16.6875 13.7265 15.8475 15.1838 14.8868 16.5585L14.7502 16.7535L14.5155 16.773C13.6718 16.8435 12.8243 16.8788 12 16.8788ZM9.80475 15.7928C11.2815 15.906 12.7185 15.906 14.199 15.7928C15.0232 14.586 15.7575 13.3163 16.3942 11.9955C15.7612 10.6755 15.027 9.40578 14.1952 8.19828C12.7343 8.08503 11.2657 8.08503 9.80475 8.19828C8.973 9.40503 8.238 10.6748 7.60575 11.9955C8.2425 13.3155 8.97675 14.5853 9.80475 15.7928Z" fill="#94A1B2"/>
</svg>
