<svg width="24" height="24" viewBox="0 0 24 24" fill="none" xmlns="http://www.w3.org/2000/svg">
<path d="M23.993 0H0.00703125C0.003148 0 0 0.003148 0 0.00703125V23.993C0 23.9969 0.003148 24 0.00703125 24H23.993C23.9969 24 24 23.9969 24 23.993V0.00703125C24 0.003148 23.9969 0 23.993 0Z" fill="#94A1B2"/>
<path d="M12.0937 4.12493C7.59375 5.6718 4.6875 8.81243 4.96875 10.6874C5.25 12.5624 8.0625 14.0624 9.32812 15.0468C7.6875 15.8906 5.625 17.1562 5.67187 18.7968C5.76562 21.0468 8.20312 20.3437 9.23437 19.6874C10.2656 19.0312 11.2969 17.2031 10.6406 15.2812C12.0937 14.9062 13.3594 15.3749 13.7344 15.6562C15.1875 16.6874 14.4375 17.8593 13.9219 18.0468C13.4062 18.2343 13.7344 18.3281 14.0625 18.2343C14.3906 18.1406 15.0937 17.6718 15.0937 16.8749C15.0937 14.8593 12.9375 13.9218 10.2656 14.6249C8.71875 12.9843 6.60937 12.2343 6.70312 10.4531C6.75 9.79681 6.98437 8.1093 11.1562 5.99993C15.3281 3.89056 18.2812 4.73431 17.9062 6.65618C17.3437 9.56243 12.2812 11.5312 10.5 9.84368C10.4062 9.65618 10.0781 9.51556 10.2656 10.0312C11.2031 12.3749 18.7969 11.2968 19.125 6.32805C19.2187 3.70306 15.4219 2.99993 12.0937 4.12493ZM8.0625 19.1249C6.89062 19.4999 6.9375 18.7499 6.98437 18.4687C7.125 17.6718 7.78125 16.6874 9.75 15.7031C10.3125 17.4843 9.04687 18.8437 8.0625 19.1249Z" fill="#2A2A40"/>
</svg>
