<svg width="24" height="24" viewBox="0 0 24 24" fill="none" xmlns="http://www.w3.org/2000/svg">
<path d="M23.993 0H0.00703125C0.003148 0 0 0.003148 0 0.00703125V23.993C0 23.9969 0.003148 24 0.00703125 24H23.993C23.9969 24 24 23.9969 24 23.993V0.00703125C24 0.003148 23.9969 0 23.993 0Z" fill="#94A1B2"/>
<path d="M10.9219 13.3124H13.9219V11.3905H5.53125V13.3124H8.53125V21.8905H10.9219V13.3124ZM14.8594 21.4218C15.2391 21.6186 15.7031 21.7639 16.2188 21.8624C16.7344 21.9608 17.2969 22.0077 17.8594 22.0077C18.4219 22.0077 18.9375 21.9561 19.4531 21.8483C19.9688 21.7405 20.3906 21.5624 20.7656 21.3327C21.1453 21.0843 21.4688 20.7702 21.6562 20.3483C21.8438 19.9264 21.9891 19.4577 21.9891 18.8483C21.9891 18.4218 21.9234 18.0514 21.7969 17.7233C21.6703 17.3952 21.4875 17.1139 21.2344 16.8796C20.9953 16.6311 20.7188 16.4108 20.3906 16.2233C20.0625 16.0358 19.6875 15.8389 19.2656 15.6608C18.9563 15.5343 18.7031 15.4124 18.4219 15.2905C18.1781 15.1686 17.9672 15.0468 17.8125 14.9249C17.6391 14.7983 17.5078 14.6671 17.4141 14.5311C17.3203 14.3905 17.2734 14.2358 17.2734 14.0624C17.2734 13.903 17.3152 13.7577 17.4 13.6264C17.4848 13.4952 17.6016 13.3874 17.7516 13.2936C17.9016 13.1999 18.0891 13.1296 18.3141 13.078C18.5344 13.0264 18.7781 13.003 19.0641 13.003C19.2609 13.003 19.4672 13.0175 19.6734 13.0471C19.8891 13.0766 20.1094 13.1221 20.3297 13.183C20.55 13.2439 20.7656 13.3189 20.9859 13.4127C21.1922 13.5064 21.3844 13.6143 21.5484 13.7361V11.533C21.1922 11.3971 20.7984 11.2939 20.3766 11.2283C19.9547 11.1627 19.4859 11.1299 18.9234 11.1299C18.3609 11.1299 17.8453 11.1908 17.3297 11.308C16.8141 11.4252 16.3922 11.6127 16.0172 11.8705C15.6375 12.1236 15.3609 12.433 15.1266 12.8549C14.9063 13.2486 14.7984 13.6986 14.7984 14.2611C14.7984 14.9643 15 15.5736 15.4078 16.0424C15.8109 16.558 16.4391 16.933 17.2359 17.308C17.5594 17.4393 17.8453 17.5705 18.1266 17.6971C18.4078 17.8236 18.6422 17.9549 18.8297 18.0908C19.0313 18.2268 19.1906 18.3768 19.2984 18.5361C19.4156 18.6955 19.4766 18.883 19.4766 19.0986C19.4766 19.2486 19.44 19.3893 19.3688 19.5205C19.2975 19.6518 19.1859 19.7643 19.0359 19.858C18.8859 19.9518 18.7031 20.0268 18.4734 20.083C18.2531 20.1346 18.0047 20.1627 17.6766 20.1627C17.1609 20.1627 16.6453 20.0736 16.1766 19.8955C15.6609 19.7174 15.1922 19.4502 14.8594 19.1718V21.4218Z" fill="#2A2A40"/>
</svg>
